<?xml version="1.0" standalone="no"?>
<!DOCTYPE svg PUBLIC "-//W3C//DTD SVG 20010904//EN"
 "http://www.w3.org/TR/2001/REC-SVG-20010904/DTD/svg10.dtd">
<svg version="1.0" xmlns="http://www.w3.org/2000/svg"
 width="500.000000pt" height="500.000000pt" viewBox="0 0 500.000000 500.000000"
 preserveAspectRatio="xMidYMid meet">
<metadata>
Created by potrace 1.14, written by Peter Selinger 2001-2017
</metadata>
<g transform="translate(0.000000,500.000000) scale(0.100000,-0.100000)"
fill="#000000" stroke="none">
<path d="M1092 4798 c-5 -7 -12 -22 -16 -33 -9 -29 -40 -62 -60 -66 -10 -2
-25 -16 -34 -32 -15 -24 -15 -30 -3 -50 8 -12 19 -29 24 -38 8 -13 -42 -75
-248 -312 l-258 -296 -35 14 c-19 8 -44 15 -56 15 -25 0 -66 -38 -66 -61 -1
-18 -24 -49 -37 -49 -6 0 -23 -10 -38 -22 -24 -18 -27 -26 -22 -61 27 -203
470 -664 1361 -1421 138 -116 264 -223 280 -238 25 -22 3 -15 -114 38 -80 37
-257 117 -395 179 -137 62 -301 136 -364 165 -199 90 -326 110 -377 58 -19
-20 -126 -173 -489 -698 -132 -191 -125 -176 -125 -244 0 -186 107 -376 349
-616 229 -228 494 -435 749 -587 165 -98 251 -137 339 -153 79 -14 88 -9 149
77 26 38 117 159 201 270 84 111 153 209 153 218 0 8 -6 31 -14 50 l-15 35 57
-29 c100 -50 541 -241 712 -308 401 -157 549 -195 755 -195 156 0 205 11 237
53 13 17 47 57 77 90 53 58 54 59 47 108 -6 50 -6 50 61 138 125 165 171 218
270 316 63 60 108 97 121 97 12 0 37 13 55 30 19 16 37 27 39 24 3 -3 38 32
78 77 70 79 72 83 66 123 -13 83 -101 234 -249 429 l-59 78 41 49 c22 27 36
50 30 52 -13 4 406 471 459 511 48 36 155 141 195 192 31 38 30 38 -33 -14
-154 -129 -329 -158 -595 -101 -273 60 -651 231 -1123 510 -116 68 -139 88
-356 299 -829 807 -1496 1339 -1682 1341 -17 0 -36 -6 -42 -12z m66 -60 c-6
-18 -28 -21 -28 -4 0 9 7 16 16 16 9 0 14 -5 12 -12z m86 -34 c14 -5 13 -10
-5 -35 -11 -16 -24 -29 -29 -29 -17 0 -20 34 -4 51 19 22 17 21 38 13z m-148
-31 c-10 -10 -19 5 -10 18 6 11 8 11 12 0 2 -7 1 -15 -2 -18z m258 -38 c17
-13 16 -16 -15 -55 -33 -40 -33 -40 -52 -21 -20 20 -20 20 9 55 34 40 33 40
58 21z m130 -93 c15 -18 14 -21 -21 -61 l-38 -41 -24 19 -24 19 34 41 c38 46
49 49 73 23z m-244 -68 c0 -28 -24 -25 -57 9 -47 46 -35 65 17 30 22 -14 40
-32 40 -39z m-122 1 c27 -25 52 -54 55 -65 4 -16 -45 -76 -221 -270 -255 -282
-241 -273 -341 -221 l-53 27 247 287 c137 158 251 287 255 287 5 0 30 -20 58
-45z m504 -38 l26 -22 -38 -44 -38 -44 -26 19 c-14 11 -26 23 -26 27 0 9 62
87 70 86 3 0 17 -10 32 -22z m-194 -100 c9 -10 8 -18 -2 -32 -13 -18 -15 -17
-55 14 -40 32 -41 34 -25 52 16 18 17 18 44 -1 15 -10 32 -25 38 -33z m346
-22 l29 -24 -34 -45 c-19 -25 -36 -45 -39 -46 -3 0 -18 11 -35 24 l-29 24 34
45 c19 26 37 46 40 46 3 0 18 -10 34 -24z m-434 -29 c9 -6 53 -40 98 -75 70
-55 80 -66 69 -80 -36 -49 -390 -481 -394 -481 -14 0 -243 133 -258 150 -20
22 -35 4 273 342 161 177 164 179 212 144z m220 -73 c-1 -18 -18 -35 -24 -24
-4 6 -4 16 -1 21 7 12 25 13 25 3z m383 -41 l26 -27 -39 -45 -39 -45 -30 30
-30 30 32 42 c18 23 37 42 43 43 5 0 22 -12 37 -28z m-131 -242 c251 -182 258
-188 258 -208 0 -9 -79 -104 -176 -211 -169 -184 -178 -193 -208 -188 -29 5
-466 255 -466 267 0 10 382 480 390 480 5 0 95 -63 202 -140z m-6 96 c30 -26
36 -37 27 -46 -9 -10 -22 -4 -57 22 -34 26 -42 38 -33 47 16 16 19 15 63 -23z
m331 -31 c1 -5 -11 -27 -28 -47 l-30 -38 -39 26 -39 26 36 48 37 49 30 -27
c17 -15 32 -31 33 -37z m-1717 -55 c11 -7 12 -12 3 -21 -8 -8 -14 -6 -22 10
-12 22 -5 27 19 11z m1883 -146 l-27 -32 -35 26 c-20 14 -38 27 -40 29 -2 1 9
21 24 43 l28 41 38 -37 38 -37 -26 -33z m-298 54 l40 -41 -47 33 c-27 18 -48
37 -48 42 0 17 17 7 55 -34z m-1345 -18 c0 -4 -11 -17 -24 -29 l-24 -23 -48
21 -47 21 27 29 28 30 44 -22 c24 -11 44 -24 44 -27z m-305 4 c14 -6 12 -11
-11 -35 -32 -34 -52 -20 -27 18 17 26 16 25 38 17z m85 -69 c9 -11 6 -22 -21
-55 -18 -22 -34 -40 -37 -40 -3 0 -10 8 -17 17 -11 15 -8 23 18 54 37 43 40
44 57 24z m314 -109 c127 -63 237 -119 245 -124 11 -8 4 -22 -34 -71 -71 -90
-72 -90 -245 87 -177 179 -217 222 -205 222 5 0 112 -51 239 -114z m99 81 l38
-23 -26 -24 -25 -24 -46 23 -47 22 23 24 c29 31 35 31 83 2z m1624 -43 c36
-27 41 -45 19 -63 -12 -10 -23 -7 -55 15 -39 25 -41 32 -18 62 13 16 15 16 54
-14z m-1943 -66 c-5 -8 -21 -30 -37 -47 l-27 -33 -19 23 c-18 23 -18 23 17 66
36 42 37 43 55 24 13 -13 16 -24 11 -33z m526 -6 c21 -17 22 -18 3 -41 -19
-23 -20 -23 -52 -6 l-33 17 23 24 c27 29 30 29 59 6z m1208 -14 c29 -18 52
-52 52 -77 0 -9 -299 -405 -308 -408 -4 -2 -43 19 -87 45 -51 30 -81 55 -83
68 -2 17 116 156 301 352 54 57 61 58 125 20z m173 -4 c10 -9 15 -22 12 -30
-4 -12 -10 -11 -29 7 -13 12 -24 26 -24 31 0 13 22 9 41 -8z m-1791 -103 c-6
-9 -23 -31 -38 -49 l-28 -32 -24 25 -23 24 38 46 37 46 24 -22 c17 -16 21 -26
14 -38z m2029 5 c14 -14 22 -28 20 -31 -9 -8 -86 50 -82 62 6 16 29 4 62 -31z
m-1373 -22 c50 -29 52 -34 25 -58 -18 -16 -21 -16 -59 3 -52 26 -58 38 -36 62
21 24 17 24 70 -7z m1347 -23 l28 -18 -23 -26 -23 -26 -28 23 c-26 21 -28 25
-16 45 17 26 26 26 62 2z m-1399 -67 c104 -58 665 -373 675 -380 1 -2 -48 -70
-110 -153 -72 -95 -123 -153 -137 -157 -31 -9 -39 -2 -325 249 -310 272 -357
318 -357 344 0 23 105 163 123 163 6 0 65 -30 131 -66z m1411 -150 c107 -102
197 -188 199 -193 3 -4 -48 -66 -112 -138 -96 -108 -122 -132 -145 -132 -19
-1 -102 43 -250 130 -122 72 -223 132 -224 133 -1 1 63 88 143 194 120 160
148 192 169 192 19 0 74 -46 220 -186z m-1895 151 l23 -24 -38 -46 -37 -46
-24 22 c-13 12 -24 27 -24 33 0 14 58 86 69 86 4 0 18 -11 31 -25z m771 -47
c44 -24 45 -26 25 -53 -12 -17 -17 -18 -42 -6 -16 7 -40 19 -52 28 -23 14 -23
15 -6 34 22 24 28 24 75 -3z m1337 -40 c7 -9 7 -18 -4 -32 -13 -19 -15 -18
-58 5 l-44 23 20 28 20 28 27 -19 c15 -11 33 -26 39 -33z m-1966 -129 l-37
-47 -32 30 -32 31 37 48 37 47 32 -30 32 -31 -37 -48z m1927 54 c2 -1 1 -10
-3 -19 -6 -15 -13 -12 -46 21 -65 64 -48 63 49 -2z m-1079 -13 c49 -25 56 -37
35 -60 -17 -19 -19 -19 -65 7 -46 26 -47 28 -33 50 18 28 15 28 63 3z m1260
-55 c11 -13 10 -14 -4 -9 -9 3 -16 10 -16 15 0 13 6 11 20 -6z m-1932 -64 l32
-28 -36 -46 c-20 -26 -39 -47 -42 -47 -10 0 -62 53 -62 62 0 11 61 88 69 88 3
-1 21 -13 39 -29z m2147 -10 c3 -5 0 -13 -6 -16 -11 -7 -59 31 -59 47 0 10 56
-17 65 -31z m-1264 6 c15 -12 15 -14 -2 -35 -15 -19 -22 -21 -39 -12 -24 13
-25 18 -3 42 19 21 23 22 44 5z m1069 -46 c-21 -31 -40 -40 -40 -21 0 14 50
64 57 57 3 -3 -5 -20 -17 -36z m323 -32 c32 -17 32 -17 12 -39 -16 -18 -20
-18 -46 -4 -25 13 -27 17 -17 34 15 23 21 24 51 9z m-136 -61 c18 -18 33 -36
33 -41 0 -5 -14 -27 -31 -49 l-32 -39 -33 32 c-19 18 -34 37 -34 42 0 10 52
86 60 87 2 0 19 -14 37 -32z m-1017 0 c22 -13 40 -26 40 -29 0 -3 -9 -14 -20
-24 -18 -17 -21 -16 -57 6 -21 12 -39 24 -41 25 -6 4 22 44 31 44 4 0 26 -10
47 -22z m-942 -19 l33 -30 -38 -48 -39 -48 -39 32 -39 33 38 46 c20 25 40 46
44 46 4 0 22 -14 40 -31z m1778 -63 c73 -72 94 -99 94 -121 0 -18 -23 -60 -67
-121 l-66 -93 -76 42 c-186 102 -206 114 -206 135 0 19 202 252 219 252 5 0
51 -42 102 -94z m469 62 c24 -11 24 -12 9 -30 -20 -22 -34 -23 -59 -4 -16 12
-17 16 -6 30 16 19 22 20 56 4z m-1234 -124 c118 -67 311 -176 429 -242 118
-66 216 -124 217 -128 1 -5 -75 -117 -171 -249 -152 -211 -176 -240 -202 -243
-26 -3 -74 36 -387 302 -324 278 -357 309 -357 336 0 24 28 68 121 191 66 88
124 159 128 157 4 -2 104 -58 222 -124z m1329 -30 c12 -12 10 -18 -15 -44
l-29 -30 -29 27 c-16 16 -60 63 -98 105 l-70 77 113 -61 c62 -33 120 -67 128
-74z m43 85 c32 -17 32 -17 12 -39 -16 -18 -19 -18 -47 -4 -29 15 -29 16 -12
35 20 22 19 22 47 8z m-1239 -30 c41 -24 43 -30 18 -52 -16 -15 -21 -14 -60 9
-42 25 -43 27 -26 45 21 24 25 24 68 -2z m-924 -95 c0 -3 -17 -27 -37 -54
l-37 -49 -37 32 c-20 18 -38 35 -38 38 -1 3 15 27 35 53 l35 47 40 -32 c21
-17 39 -33 39 -35z m1942 3 c9 -17 -1 -36 -49 -96 -4 -5 -73 60 -73 69 0 3 14
25 31 49 l32 42 24 -23 c14 -13 29 -31 35 -41z m381 20 c-12 -13 -25 -16 -43
-12 -34 9 -36 12 -16 34 14 16 22 17 46 8 28 -11 28 -12 13 -30z m-1204 -38
l34 -20 -22 -22 c-21 -21 -21 -21 -56 -3 -37 20 -43 34 -23 54 17 17 28 15 67
-9z m1360 -5 c2 -2 -4 -12 -13 -23 -14 -16 -22 -17 -46 -8 -28 11 -28 12 -13
30 15 16 56 17 72 1z m-118 -43 c63 -27 168 -66 234 -86 66 -21 124 -42 129
-46 5 -4 -49 -71 -120 -149 l-128 -142 -51 58 c-27 32 -104 119 -171 193
l-121 136 36 42 c21 26 44 43 57 43 12 0 73 -22 135 -49z m258 -7 c2 -2 -4
-12 -13 -23 -28 -31 -82 -7 -55 25 11 14 54 12 68 -2z m-1328 -41 c34 -20 35
-24 10 -47 -18 -16 -21 -16 -53 0 -44 22 -44 21 -23 44 22 24 29 25 66 3z
m1459 -3 c0 -17 -36 -37 -58 -31 -21 6 -21 8 -8 27 11 15 23 20 41 17 14 -3
25 -9 25 -13z m-2587 -25 l39 -33 -38 -50 -37 -50 -39 30 c-21 17 -38 35 -38
40 0 10 63 97 70 97 3 0 22 -15 43 -34z m1690 -32 c23 -25 43 -49 45 -53 5
-14 -90 -110 -109 -110 -16 0 -132 52 -148 66 -7 6 104 153 119 157 23 5 46
-10 93 -60z m1397 53 c0 -2 -8 -10 -17 -17 -16 -13 -17 -12 -4 4 13 16 21 21
21 13z m-388 -38 c-11 -11 -29 -18 -41 -16 -20 3 -20 5 -7 24 11 16 22 20 42
16 26 -5 26 -5 6 -24z m303 2 c-10 -11 -23 -20 -28 -20 -6 0 -2 9 8 20 10 11
23 20 28 20 6 0 2 -9 -8 -20z m-190 -10 c-10 -11 -27 -20 -38 -20 -19 0 -20 1
-2 20 10 11 27 20 38 20 19 0 20 -1 2 -20z m91 -6 c-15 -14 -31 -23 -34 -20
-9 9 30 46 47 46 11 -1 8 -8 -13 -26z m-971 -63 c-15 -23 -30 -41 -33 -41 -10
0 -42 33 -42 44 0 5 14 25 32 43 32 33 32 33 52 14 19 -20 19 -20 -9 -60z
m-2952 25 c-10 -13 -19 -23 -21 -21 -5 5 22 45 31 45 4 0 0 -11 -10 -24z m77
18 c0 -13 -42 -74 -51 -74 -13 0 -11 9 12 46 18 30 39 45 39 28z m2231 -11
l29 -17 -21 -22 c-22 -23 -30 -22 -78 13 -5 3 29 43 37 43 2 0 17 -8 33 -17z
m1693 -15 c-64 -74 -400 -445 -412 -455 -9 -7 -31 -13 -50 -13 -36 0 -74 31
-137 114 -32 43 -42 26 130 215 l129 142 116 -6 c101 -5 172 2 239 24 2 0 -4
-9 -15 -21z m-3834 6 c0 -17 -43 -74 -56 -74 -20 0 -17 17 7 51 18 26 49 40
49 23z m99 -33 c11 -7 10 -15 -9 -42 -13 -19 -24 -35 -25 -37 -1 -1 -12 1 -24
5 l-21 8 25 38 c27 39 32 42 54 28z m991 -104 c0 -9 -63 -96 -70 -96 -3 0 -23
15 -44 33 l-39 34 37 51 38 51 39 -33 c21 -17 39 -36 39 -40z m-863 55 c9 -6
6 -17 -12 -45 -21 -31 -29 -35 -48 -28 -24 10 -24 20 -1 57 16 24 39 30 61 16z
m2653 -234 c0 -14 -292 122 -304 140 -4 6 12 32 36 58 l42 46 113 -119 c62
-65 112 -121 113 -125z m62 195 c34 -33 34 -39 -1 -85 l-28 -37 -33 34 -32 33
28 41 c16 22 31 41 33 41 3 0 18 -12 33 -27z m-2864 -44 c141 -52 182 -72 182
-89 0 -12 -238 -354 -250 -358 -22 -8 -148 185 -185 283 -40 106 -41 134 -5
184 31 42 33 43 76 37 25 -3 107 -29 182 -57z m275 30 c12 -7 24 -13 26 -15 2
-2 -8 -19 -23 -39 -24 -31 -30 -34 -49 -24 -12 7 -24 13 -26 15 -4 4 39 74 45
74 3 0 15 -5 27 -11z m2070 -10 c32 -17 32 -17 12 -39 -16 -18 -20 -18 -46 -4
-25 13 -27 17 -17 34 15 23 21 24 51 9z m-33 -80 c187 -98 339 -170 515 -245
82 -35 151 -67 153 -72 2 -7 -311 -458 -354 -511 -5 -6 -403 132 -582 202
-181 71 -232 105 -232 155 0 24 42 90 183 286 100 140 182 255 182 256 0 0 61
-32 135 -71z m-1873 18 l23 -13 -25 -37 c-26 -37 -26 -37 -55 -22 -36 18 -36
19 -9 56 22 32 33 34 66 16z m2046 -8 c32 -17 32 -17 12 -39 -16 -18 -19 -18
-47 -4 -29 15 -29 16 -12 35 20 22 19 22 47 8z m-2891 -50 c-7 -31 -40 -90
-116 -201 -97 -143 -110 -158 -136 -158 -28 0 -25 5 113 205 77 112 142 203
144 201 2 -1 -1 -23 -5 -47z m1592 -13 l39 -33 -34 -46 c-19 -26 -38 -46 -44
-46 -5 0 -26 14 -47 32 l-36 32 35 48 c19 26 38 47 41 47 4 -1 24 -16 46 -34z
m-583 -1 c31 -16 30 -23 -5 -68 -13 -17 -19 -18 -50 -7 -20 6 -36 14 -36 17 0
8 50 73 56 73 3 0 18 -7 35 -15z m2414 -75 c-34 -35 -55 -38 -73 -9 -12 18
-10 26 14 61 l27 39 31 -30 30 -31 -29 -30z m-391 69 c21 -10 23 -14 13 -30
-13 -22 -29 -24 -58 -8 -20 10 -20 11 -3 30 20 22 17 22 48 8z m-2015 -142
c162 -72 299 -140 304 -149 9 -13 0 -31 -46 -90 -31 -40 -119 -153 -194 -250
-156 -204 -154 -203 -255 -145 -56 32 -289 230 -382 325 l-49 51 137 195 c121
173 140 196 164 196 15 0 159 -60 321 -133z m-909 103 c8 -15 6 -26 -9 -50
l-19 -31 -6 25 c-5 21 10 76 20 76 2 0 8 -9 14 -20z m3067 -51 c-13 -21 -34
-24 -57 -9 -12 7 -12 12 4 29 15 16 22 18 41 9 20 -9 22 -13 12 -29z m-1987
16 c17 -9 30 -18 30 -21 0 -3 -12 -20 -27 -39 -26 -33 -27 -33 -60 -17 -39 19
-40 23 -11 62 25 35 29 35 68 15z m2106 -50 c4 -8 1 -22 -6 -30 -9 -11 -17
-12 -36 -3 -23 11 -23 12 -8 30 21 22 43 23 50 3z m-1466 -79 c0 -6 -13 -26
-28 -44 -27 -33 -28 -33 -63 -18 -59 25 -62 35 -22 88 l35 48 39 -32 c21 -17
39 -36 39 -42z m-1775 22 c19 -50 133 -224 164 -252 12 -11 21 -25 21 -33 0
-22 -44 -15 -127 21 -44 18 -112 44 -151 57 -40 13 -72 27 -72 32 0 9 102 178
122 205 17 20 25 14 43 -30z m1355 3 c0 -4 -12 -21 -27 -40 l-28 -32 -37 16
c-21 8 -38 18 -38 21 0 3 11 20 25 39 l26 33 39 -15 c22 -9 40 -19 40 -22z
m-1230 0 c11 -21 -5 -71 -22 -71 -18 0 -31 47 -19 69 14 26 27 27 41 2z m3330
-31 c-11 -20 -30 -28 -30 -12 0 11 22 32 32 32 5 0 4 -9 -2 -20z m60 -19 c-5
-11 -15 -23 -21 -27 -6 -3 -3 5 6 20 20 30 30 35 15 7z m-2000 -17 c22 -9 40
-19 40 -23 -1 -3 -14 -21 -30 -40 l-29 -34 -41 18 c-22 10 -40 20 -40 22 0 6
52 73 56 73 2 0 22 -7 44 -16z m-1295 -70 c14 -22 15 -30 4 -50 -16 -30 -23
-30 -43 1 -15 23 -15 27 0 50 9 14 18 25 19 25 1 0 10 -12 20 -26z m1727 -25
c51 -41 37 -56 -25 -30 -49 21 -55 29 -35 49 16 16 14 16 60 -19z m1690 3 c16
-13 15 -17 -9 -51 -15 -20 -28 -38 -30 -40 -3 -5 -42 42 -43 52 0 4 10 21 22
37 21 29 28 30 60 2z m-1926 -81 c-13 -13 -20 -12 -56 4 -45 20 -46 22 -24 53
l15 22 40 -32 c35 -28 38 -33 25 -47z m-41 -40 c237 -104 255 -113 343 -187
51 -42 91 -81 90 -86 -2 -4 -92 -112 -202 -238 -184 -213 -200 -230 -231 -230
-22 0 -137 50 -346 151 -280 135 -339 168 -339 189 0 8 380 493 394 502 22 15
45 7 291 -101z m1796 75 c123 -135 299 -385 299 -424 0 -13 -14 -42 -31 -63
-29 -37 -33 -39 -88 -39 -79 0 -210 17 -311 41 -152 35 -240 61 -240 70 0 10
272 392 303 427 27 29 31 28 68 -12z m-3830 -23 c-5 -10 -17 -27 -26 -38 -16
-19 -17 -19 -3 5 26 46 29 50 34 50 3 0 0 -8 -5 -17z m79 12 c0 -10 -45 -75
-52 -75 -12 0 -9 10 13 46 18 29 39 45 39 29z m2214 -35 c5 -6 4 -15 -3 -24
-11 -13 -16 -13 -42 6 -15 12 -26 25 -23 30 7 11 54 2 68 -12z m-2146 -24
c-13 -19 -24 -33 -26 -31 -6 6 31 65 40 65 5 0 -2 -15 -14 -34z m123 4 c5 0
-2 -18 -16 -39 -19 -29 -31 -37 -46 -34 -24 7 -24 6 4 48 12 20 28 33 35 30 8
-3 18 -5 23 -5z m443 -14 c14 -23 14 -26 -2 -46 l-17 -21 -22 23 c-21 22 -22
26 -7 46 19 28 28 28 48 -2z m3379 -61 c-15 -19 -31 -35 -34 -35 -3 0 -11 11
-19 24 -11 22 -9 28 15 60 l27 36 20 -25 19 -25 -28 -35z m-3715 -9 c-12 -17
-23 -33 -24 -35 -2 -2 -15 -1 -29 3 l-25 6 26 40 c23 35 28 38 50 28 l23 -11
-21 -31z m2116 19 l37 -15 -32 -39 c-29 -36 -33 -38 -60 -29 -41 14 -44 24
-17 63 27 40 24 40 72 20z m-2579 -26 c-9 -17 -19 -28 -22 -25 -8 8 17 56 29
56 5 0 1 -14 -7 -31z m87 -14 c-15 -25 -30 -45 -33 -45 -7 0 -19 51 -19 76 0
10 13 14 40 14 l40 0 -28 -45z m201 -9 c69 -29 416 -193 425 -201 2 -1 -53
-89 -122 -194 -93 -141 -131 -191 -145 -191 -23 0 -190 183 -262 288 -77 111
-101 165 -89 196 18 49 80 136 95 136 9 0 53 -15 98 -34z m312 10 c18 -13 18
-14 -4 -45 -23 -32 -29 -35 -55 -25 -21 8 -20 20 5 55 23 33 28 34 54 15z
m349 -59 c16 -26 -1 -32 -39 -14 -32 15 -34 19 -25 38 10 18 14 19 33 6 11 -7
25 -21 31 -30z m3310 -32 c-21 -28 -29 -33 -40 -24 -20 16 -18 27 12 66 26 34
26 34 41 14 13 -19 12 -24 -13 -56z m-4241 -19 c-13 -25 -17 -27 -24 -14 -6
11 -3 27 8 47 15 25 19 27 24 13 4 -9 0 -30 -8 -46z m728 1 c-23 -37 -39 -43
-65 -24 -19 14 -19 15 3 50 22 36 23 37 52 21 l30 -15 -20 -32z m2018 10 c14
-18 -4 -36 -29 -30 -16 4 -17 8 -7 24 14 22 21 24 36 6z m229 -28 l23 -9 -23
-30 c-12 -16 -24 -30 -27 -30 -3 0 -17 12 -32 26 -23 22 -26 29 -16 45 12 19
19 19 75 -2z m1347 -19 c8 -13 -44 -82 -56 -74 -15 9 -10 30 12 58 22 28 34
32 44 16z m-4255 -59 c0 -3 -9 -19 -19 -35 -19 -28 -19 -28 -26 -6 -4 12 -1
35 6 52 12 28 13 29 26 12 7 -10 13 -20 13 -23z m813 22 c11 -10 -23 -42 -39
-36 -10 4 -11 10 -3 24 10 19 30 25 42 12z m1876 -2 c11 -7 10 -13 -5 -34
l-19 -24 -33 25 c-24 19 -30 27 -20 33 17 11 59 11 77 0z m414 -14 l28 -12
-35 -34 c-35 -34 -57 -37 -96 -12 -12 8 -10 15 15 41 31 33 45 35 88 17z
m-2099 -39 c-8 -13 -26 -10 -46 9 -29 26 -21 34 17 16 19 -9 32 -20 29 -25z
m3264 -37 c-13 -17 -26 -30 -30 -30 -15 -2 -8 18 19 50 33 39 44 21 11 -20z
m-1572 -87 c223 -193 379 -334 379 -343 0 -17 -230 -260 -251 -265 -24 -6
-202 58 -479 173 -142 59 -185 83 -185 102 0 13 385 449 397 449 3 0 65 -52
139 -116z m180 85 l33 -32 -27 -36 c-14 -20 -29 -40 -33 -45 -5 -5 -23 5 -42
21 l-35 31 32 45 c17 26 33 47 36 47 2 0 19 -14 36 -31z m418 11 c5 -5 -2 -23
-14 -40 -20 -29 -26 -31 -59 -25 -20 4 -38 9 -40 11 -3 2 11 20 29 39 33 34
58 39 84 15z m-2279 -128 c132 -66 291 -175 324 -222 12 -18 -2 -38 -165 -244
-136 -171 -184 -225 -201 -225 -43 -1 -484 334 -514 391 -12 22 -13 20 167
285 l104 152 73 -33 c39 -18 135 -65 212 -104z m-55 91 c0 -1 -16 5 -35 14
-19 9 -32 20 -29 25 4 6 64 -29 64 -39z m191 -4 c28 -19 28 -21 13 -45 -19
-29 -22 -29 -53 -3 -22 18 -23 22 -11 44 16 30 15 30 51 4z m-1083 -9 c10 -16
9 -25 -6 -50 l-19 -30 -13 25 c-10 19 -11 30 -2 50 14 30 23 31 40 5z m3149
-64 c3 -2 -3 -16 -12 -30 -27 -41 -55 -33 -131 39 l-69 64 104 -34 c57 -19
106 -37 108 -39z m263 64 c13 -8 10 -15 -16 -41 -28 -28 -36 -31 -69 -25 l-38
7 34 35 c33 34 61 42 89 24z m162 -38 c16 -6 15 -10 -8 -40 -18 -22 -34 -32
-53 -32 -41 0 -44 9 -13 46 27 33 43 38 74 26z m513 -52 c-21 -22 -44 -40 -50
-40 -11 1 70 80 82 80 4 0 -11 -18 -32 -40z m-350 24 c14 -6 11 -12 -16 -40
-31 -32 -66 -43 -83 -27 -8 8 53 73 70 73 7 0 20 -3 29 -6z m-2439 -32 c-4 -3
-14 2 -24 12 -16 18 -16 18 6 6 13 -6 21 -14 18 -18z m2564 -17 c-21 -22 -43
-35 -59 -35 -25 0 -25 0 9 35 21 22 43 35 59 35 25 0 25 0 -9 -35z m-2600 -25
c0 -17 -22 -22 -51 -10 -31 13 -36 29 -17 48 8 8 18 6 40 -9 15 -11 28 -24 28
-29z m1719 26 l23 -25 -33 -45 -33 -46 -28 27 c-34 33 -34 36 -2 79 31 40 43
42 73 10z m-2884 -16 c17 -19 17 -21 0 -46 l-17 -26 -21 20 c-18 18 -19 25 -9
47 14 30 23 31 47 5z m3166 3 c-5 -10 -22 -29 -37 -43 -28 -26 -25 -15 10 33
22 30 42 37 27 10z m-1782 -50 c2 -1 -4 -14 -13 -28 l-17 -25 -33 27 c-28 22
-32 30 -23 44 10 16 13 16 46 1 20 -9 38 -18 40 -19z m2047 17 c54 -11 155
-26 222 -33 l124 -12 -89 -116 c-48 -64 -124 -155 -169 -203 l-80 -88 -44 58
c-23 31 -90 106 -148 165 l-105 109 48 53 c92 101 85 99 241 67z m-396 -99
c-1 -3 -16 -24 -36 -45 -31 -36 -36 -38 -50 -24 -14 14 -12 20 17 62 31 43 34
45 51 29 10 -9 18 -19 18 -22z m-2917 -48 c-18 -27 -21 -28 -45 -6 -22 20 -22
27 -1 59 l16 25 22 -28 c21 -25 21 -29 8 -50z m1436 6 c-29 -41 -42 -44 -78
-18 l-30 22 26 33 25 33 39 -20 40 -20 -22 -30z m-284 13 c-3 -3 -11 0 -18 7
-9 10 -8 11 6 5 10 -3 15 -9 12 -12z m495 -71 c0 -3 -13 -22 -29 -41 l-29 -34
-41 18 -40 19 29 38 30 37 40 -15 c22 -9 40 -19 40 -22z m-350 -1 c0 -3 -5
-11 -11 -17 -17 -17 -64 14 -48 33 8 10 16 10 35 2 13 -6 24 -14 24 -18z
m-1171 -24 c22 -23 22 -25 6 -50 l-17 -26 -29 21 c-29 20 -29 21 -12 50 21 35
23 35 52 5z m2918 2 l21 -23 -33 -42 -32 -42 -23 24 -22 24 28 40 c16 22 32
41 35 41 3 0 15 -10 26 -22z m-1782 -68 c102 -77 168 -146 162 -170 -5 -21
-277 -371 -292 -377 -39 -14 -345 135 -345 169 0 23 348 448 367 448 8 0 57
-32 108 -70z m126 1 c-10 -17 -15 -19 -31 -11 -19 10 -19 12 -3 36 14 22 18
23 31 11 11 -12 12 -19 3 -36z m413 24 c40 -17 39 -23 -4 -74 -20 -24 -21 -24
-60 -6 -22 10 -40 20 -40 22 0 8 55 73 61 73 4 0 23 -7 43 -15z m1156 -99 c83
-76 170 -169 209 -224 l22 -32 -25 -12 c-20 -8 -48 -8 -120 0 -116 15 -365 76
-384 96 -13 13 -8 22 39 73 98 107 163 173 171 173 4 0 44 -33 88 -74z m-2671
-6 c0 -3 -8 -16 -19 -30 l-19 -25 -25 24 c-25 23 -25 25 -9 52 l16 28 28 -22
c15 -12 28 -24 28 -27z m1171 19 c-11 -20 -22 -24 -33 -12 -9 9 23 44 34 37 5
-3 4 -14 -1 -25z m1700 11 c9 -17 6 -27 -21 -61 -30 -38 -32 -39 -50 -23 -20
18 -19 21 19 72 28 37 37 39 52 12z m-1176 -5 c20 -8 36 -18 36 -21 0 -10 -52
-74 -60 -74 -4 0 -24 7 -44 15 l-37 16 31 39 c18 22 33 40 35 40 1 0 19 -7 39
-15z m-484 -39 c0 -2 -8 -10 -17 -17 -16 -13 -17 -12 -4 4 13 16 21 21 21 13z
m671 -41 c23 -13 27 -19 20 -33 -18 -34 -49 -55 -73 -48 -49 13 -53 21 -23 60
31 41 35 42 76 21z m1075 -20 c7 -16 -40 -85 -57 -85 -22 0 -19 31 6 65 30 38
42 43 51 20z m-2836 -20 l24 -25 -21 -21 c-21 -21 -21 -21 -46 -3 -24 18 -24
20 -9 47 20 33 23 33 52 2z m1943 -32 c24 -7 22 -18 -11 -54 -27 -30 -30 -31
-65 -20 l-37 12 32 40 c22 27 37 38 47 33 9 -3 24 -9 34 -11z m-1786 -90 c2
-5 -4 -20 -14 -31 -18 -21 -18 -21 -42 -2 -22 19 -23 21 -6 46 15 23 18 24 38
11 11 -7 22 -18 24 -24z m1951 31 c28 -8 28 -12 -9 -52 -28 -32 -31 -33 -65
-22 l-36 12 33 34 c34 36 40 38 77 28z m812 -59 c-7 -9 -15 -13 -18 -10 -3 2
1 11 8 20 7 9 15 13 18 10 3 -2 -1 -11 -8 -20z m-642 5 c8 0 1 -16 -19 -41
-27 -34 -36 -39 -58 -34 -37 9 -37 10 -6 51 21 27 32 34 49 30 11 -3 27 -6 34
-6z m151 -46 c3 -2 -10 -19 -28 -38 -24 -25 -38 -32 -57 -28 -13 2 -24 6 -24
9 0 2 12 20 28 39 22 28 32 33 52 29 14 -4 27 -9 29 -11z m-2144 -8 c18 -13
18 -15 2 -40 -17 -25 -19 -25 -42 -10 -30 19 -30 22 -8 46 19 22 24 22 48 4z
m2279 -13 c11 -12 -56 -73 -81 -73 -31 0 -29 8 9 47 30 31 57 41 72 26z m229
-34 c-23 -39 -38 -51 -58 -47 -11 2 -7 12 20 41 42 45 63 49 38 6z m-123 -14
c-21 -22 -43 -35 -59 -35 -25 0 -25 0 9 35 21 22 43 35 59 35 25 0 25 0 -9
-35z m-2254 -19 c19 -15 19 -15 -2 -36 -18 -19 -24 -20 -42 -9 -18 12 -19 14
-5 36 18 27 23 28 49 9z m127 -63 c9 -8 -22 -43 -39 -43 -20 0 -27 19 -14 35
13 16 42 20 53 8z m90 -39 c9 -9 -16 -44 -30 -44 -16 0 -17 22 -1 38 13 13 22
15 31 6z m67 -39 c-7 -8 -17 -15 -23 -15 -5 0 -2 9 8 20 21 23 35 19 15 -5z"/>
</g>
</svg>
