<svg aria-hidden="true" style="position:absolute;width:0;height:0;overflow:hidden" xmlns="http://www.w3.org/2000/svg"><defs>
<symbol id="icon-youtube-svgrepo-com-1" viewBox="0 0 32 32"><path fill="#f61c0d" style="fill:var(--color1, #f61c0d)" 
d="M25.354 4.678H6.646A6.647 6.647 0 0 0 0 11.324v9.352a6.646 6.646 0 0 0 6.646 6.646h18.708A6.647 6.647 0 0 0 32 
20.676v-9.352a6.647 6.647 0 0 0-6.646-6.646zm-4.495 11.777-8.75 4.173a.351.351 0 0 1-.502-.317v-8.608a.35.35 0 0 
1 .51-.313l8.75 4.434a.35.35 0 0 1-.008.63z"/></symbol><symbol id="icon-close-1-1" viewBox="0 0 32 32"><path stroke-width="
2.133" d="m8.533 8.533 14.933 14.933m-14.933.001L23.466 8.534"/></symbol></defs></svg>